<?xml version="1.0" standalone="no"?>
<!DOCTYPE svg PUBLIC "-//W3C//DTD SVG 20010904//EN"
 "http://www.w3.org/TR/2001/REC-SVG-20010904/DTD/svg10.dtd">
<svg version="1.0" xmlns="http://www.w3.org/2000/svg"
 width="400.000000pt" height="400.000000pt" viewBox="0 0 400.000000 400.000000"
 preserveAspectRatio="xMidYMid meet">
<metadata>
Created by potrace 1.14, written by Peter Selinger 2001-2017
</metadata>
<g transform="translate(0.000000,400.000000) scale(0.100000,-0.100000)"
fill="#000000" stroke="none">
<path d="M1760 3633 c-41 -14 -107 -38 -146 -55 -40 -16 -105 -34 -145 -39
-71 -9 -76 -12 -119 -58 -56 -60 -90 -103 -90 -114 0 -16 -84 -137 -95 -137
-6 0 -29 -18 -50 -41 -22 -22 -52 -47 -66 -54 -15 -8 -34 -31 -44 -51 -15 -31
-15 -42 -5 -83 7 -25 26 -63 41 -83 33 -42 35 -63 14 -115 -8 -19 -15 -53 -15
-75 0 -21 -6 -51 -14 -66 -8 -17 -16 -81 -21 -168 -6 -135 -6 -143 14 -161 19
-18 20 -25 12 -99 -15 -132 -22 -274 -13 -274 5 0 14 51 19 113 6 61 23 173
37 247 15 74 31 160 37 190 5 30 18 89 28 130 11 41 17 78 15 82 -4 6 83 135
115 170 4 4 29 -4 55 -17 27 -14 60 -25 73 -25 14 0 33 -5 43 -10 10 -6 65
-12 122 -14 57 -2 156 -13 221 -25 104 -19 130 -20 219 -11 98 10 102 9 125
-12 22 -20 34 -22 191 -25 92 -1 218 -6 281 -10 l115 -8 11 -53 c7 -29 26 -75
44 -103 37 -59 37 -59 11 -59 -14 0 -20 -7 -20 -23 0 -13 4 -27 9 -32 4 -6 11
-26 15 -45 3 -19 3 -30 -2 -24 -4 6 -21 15 -39 18 -27 6 -32 4 -38 -16 -7 -21
-73 -90 -126 -130 -15 -12 -18 -18 -9 -18 8 0 -1 -8 -20 -18 -31 -15 -38 -16
-65 -3 -19 9 -82 17 -175 22 -80 4 -173 14 -207 22 -71 17 -81 12 -85 -44 l-3
-34 80 -17 c64 -14 110 -16 233 -11 110 4 152 3 152 -6 0 -6 -4 -11 -9 -11 -5
0 -11 -9 -14 -19 -2 -11 -15 -21 -28 -24 -24 -4 -24 -4 -1 -6 12 0 22 -7 22
-15 0 -17 -35 -30 -52 -20 -7 4 -5 -2 5 -14 13 -14 31 -21 55 -21 62 -1 77 -7
87 -37 6 -16 18 -37 29 -47 16 -17 18 -32 14 -111 l-4 -92 -44 -40 c-25 -21
-67 -63 -94 -91 -27 -29 -55 -53 -62 -53 -34 0 -79 -90 -89 -177 -8 -72 -14
-93 -24 -90 -4 1 -20 -13 -35 -31 -15 -17 -32 -29 -37 -26 -6 3 -16 0 -24 -6
-13 -10 -15 -8 -15 18 l0 30 -67 -63 c-53 -50 -82 -69 -138 -89 -91 -33 -188
-47 -246 -34 -89 20 -116 19 -122 -4 -6 -21 15 -63 41 -85 8 -7 17 -35 19 -63
3 -40 1 -50 -11 -50 -9 0 -16 -7 -16 -15 0 -8 -4 -15 -10 -15 -5 0 -10 -7 -10
-14 0 -12 -6 -13 -30 -5 -16 6 -30 15 -30 20 0 5 -7 9 -15 9 -8 0 -15 8 -15
19 0 10 -7 24 -15 31 -24 20 -20 -25 5 -50 10 -10 28 -36 39 -57 27 -53 51
-72 112 -88 55 -15 269 -22 288 -10 6 3 48 8 93 11 l82 6 -51 -44 c-29 -24
-86 -59 -127 -78 l-76 -35 0 -53 c0 -49 -5 -60 -58 -135 -32 -45 -71 -106 -88
-134 -16 -29 -35 -55 -42 -58 -22 -8 -34 45 -39 175 -2 69 -6 136 -9 149 -3
14 -26 45 -51 69 -42 42 -44 47 -39 86 13 83 8 106 -31 147 -20 21 -40 39 -43
39 -4 0 -19 -57 -34 -127 -14 -69 -31 -132 -37 -139 -5 -7 -67 -41 -137 -75
-114 -57 -232 -130 -240 -150 -2 -5 -34 -31 -71 -58 -37 -28 -76 -62 -87 -77
-10 -14 -27 -35 -37 -47 -10 -12 -30 -46 -45 -74 l-25 -53 -374 0 -373 0 0
-30 0 -30 2000 0 2000 0 0 30 0 30 -409 0 -408 0 -26 83 c-14 45 -29 92 -32
104 -16 57 -144 197 -205 224 -24 11 -47 23 -50 28 -11 17 -160 111 -175 111
-26 0 -163 50 -235 85 -36 18 -77 35 -92 39 -27 6 -28 7 -22 69 3 34 10 75 15
91 7 22 5 31 -7 41 -14 10 -9 16 39 48 30 20 78 65 105 99 28 35 62 74 76 87
14 14 26 30 26 36 0 6 21 39 48 72 26 33 55 74 64 92 15 27 20 30 42 21 35
-13 78 4 99 39 9 16 17 35 17 43 0 7 16 33 35 57 19 24 35 47 35 52 0 4 13 30
28 56 16 27 32 61 36 78 4 16 17 50 28 74 11 25 25 73 31 107 9 53 8 66 -6 88
-10 14 -21 26 -26 26 -4 0 -29 -14 -55 -31 -26 -17 -49 -29 -52 -27 -12 12 17
56 47 70 40 20 59 67 95 228 18 77 28 158 31 245 l5 130 -46 90 -45 89 16 55
c14 48 14 68 4 149 -15 109 -41 192 -76 238 -40 53 -124 128 -158 142 -17 8
-46 27 -64 42 -68 60 -172 98 -488 176 -161 41 -207 48 -300 50 -95 2 -120 -1
-185 -23z m639 -260 c11 -9 18 -21 14 -25 -5 -10 -43 19 -43 34 0 12 8 10 29
-9z m48 -63 c18 0 33 -5 33 -10 0 -7 7 -7 21 1 18 9 25 8 41 -8 26 -27 14 -56
-21 -49 -14 3 -33 2 -41 -4 -11 -7 -22 -2 -42 17 -16 15 -28 33 -28 40 0 7 -4
13 -10 13 -5 0 -10 5 -10 12 0 9 3 9 12 0 7 -7 27 -12 45 -12z m-120 -9 c2
-10 20 -25 39 -34 25 -12 34 -23 34 -41 0 -23 -2 -24 -30 -15 -16 6 -30 16
-30 22 0 6 -6 18 -14 26 -20 23 -30 61 -16 61 7 0 14 -8 17 -19z m313 6 c8 -7
21 -20 29 -29 12 -16 11 -18 -3 -18 -9 0 -25 9 -36 20 -32 32 -24 54 10 27z
m-330 -64 c0 -7 4 -13 9 -13 5 0 11 -9 14 -20 6 -22 -8 -28 -16 -7 -3 6 -6 -5
-6 -25 -1 -21 -4 -38 -7 -38 -17 0 -46 24 -59 51 -14 27 -17 28 -32 14 -8 -9
-22 -14 -29 -11 -10 4 -14 -4 -15 -27 l0 -32 -20 44 c-25 58 -32 87 -25 107 5
13 9 14 21 4 8 -7 15 -10 15 -6 0 3 17 -3 37 -14 50 -27 56 -25 48 11 l-7 32
36 -29 c20 -16 36 -35 36 -41z m410 42 c0 -8 -4 -15 -10 -15 -5 0 -10 7 -10
15 0 8 5 15 10 15 6 0 10 -7 10 -15z m-972 -27 c9 -9 12 -9 12 0 0 7 5 12 10
12 6 0 3 -11 -6 -25 -14 -21 -19 -23 -32 -13 -13 11 -14 11 -7 -1 6 -11 4 -13
-8 -8 -10 4 -17 1 -17 -6 -1 -12 -30 21 -30 34 0 8 23 16 51 18 8 0 20 -4 27
-11z m182 -42 c-1 -19 -2 -19 -15 4 -20 35 -19 62 0 36 8 -11 15 -29 15 -40z
m990 12 c0 -13 -5 -9 -31 19 l-24 26 27 -19 c15 -10 28 -22 28 -26z m-1066 10
c16 -26 -2 -35 -20 -10 -8 12 -20 19 -26 16 -7 -4 -8 -2 -4 5 10 16 36 10 50
-11z m-217 -34 c-3 -4 0 -13 8 -21 8 -8 15 -22 15 -31 -1 -13 -7 -10 -26 12
-20 23 -23 31 -12 37 15 10 24 12 15 3z m-203 -152 c6 -10 -25 -9 -42 2 -20
12 -3 27 18 16 10 -6 21 -14 24 -18z m-74 -52 c0 -5 -5 -10 -11 -10 -5 0 -7 5
-4 10 3 6 8 10 11 10 2 0 4 -4 4 -10z m1491 -873 c-10 -9 -11 -8 -5 6 3 10 9
15 12 12 3 -3 0 -11 -7 -18z m-1 -51 c0 -3 -4 -8 -10 -11 -5 -3 -10 -1 -10 4
0 6 5 11 10 11 6 0 10 -2 10 -4z m-10 -108 c0 -19 -2 -20 -10 -8 -13 19 -13
30 0 30 6 0 10 -10 10 -22z m141 -229 c-21 -62 -55 -123 -88 -159 -13 -14 -23
-28 -23 -32 0 -5 -7 -8 -16 -8 -14 0 -14 1 0 16 9 8 16 26 16 38 0 13 10 38
23 57 13 19 26 41 29 49 9 23 69 102 74 98 2 -3 -4 -29 -15 -59z m-124 -45 c1
-23 -6 -43 -17 -54 -11 -11 -24 -37 -30 -59 -6 -22 -14 -43 -19 -46 -5 -2 -5
12 1 33 5 20 13 53 17 73 6 26 34 81 47 89 0 0 0 -16 1 -36z m-527 -767 c0 -2
-10 -12 -22 -23 l-23 -19 19 23 c18 21 26 27 26 19z"/>
<path d="M1322 2433 c-29 -15 -52 -30 -52 -34 0 -4 -18 -29 -40 -54 -50 -58
-55 -90 -7 -51 39 32 110 66 154 73 44 7 139 -29 183 -70 47 -44 91 -77 101
-77 13 0 11 64 -2 93 -6 13 -23 31 -37 40 -15 9 -43 31 -62 49 -64 62 -155 74
-238 31z"/>
<path d="M1327 2150 c-35 -6 -97 -53 -97 -72 0 -13 28 -9 37 6 11 19 68 46 97
46 22 0 24 -3 16 -29 -11 -40 4 -102 31 -123 24 -20 108 -25 140 -7 11 5 28
24 39 41 l18 30 16 -28 c8 -16 15 -22 16 -14 1 55 -99 132 -194 149 -65 12
-64 12 -119 1z m141 -57 c3 -19 -1 -23 -21 -23 -26 0 -38 15 -29 38 8 22 47
10 50 -15z"/>
<path d="M2405 2080 c3 -5 11 -10 16 -10 6 0 7 5 4 10 -3 6 -11 10 -16 10 -6
0 -7 -4 -4 -10z"/>
<path d="M2123 1973 c32 -2 81 -2 110 0 29 2 3 3 -58 3 -60 0 -84 -1 -52 -3z"/>
<path d="M2310 1963 c14 -2 54 -13 89 -24 58 -17 84 -19 69 -3 -10 10 -122 33
-153 32 -27 -1 -27 -1 -5 -5z"/>
<path d="M1786 1570 c-16 -5 -43 -23 -61 -40 -28 -27 -33 -29 -45 -15 -7 8
-23 15 -37 15 -20 0 -22 -3 -13 -19 25 -47 70 -68 70 -33 1 23 29 -26 30 -51
0 -11 5 -15 11 -11 19 12 29 -19 11 -33 -15 -13 -15 -13 6 -8 21 6 23 5 13
-13 -6 -12 -11 -23 -11 -26 0 -9 28 -7 32 2 2 5 19 4 38 -1 l35 -10 -50 -10
c-62 -12 -242 -10 -313 4 -30 6 -56 8 -59 5 -8 -8 56 -66 73 -66 8 0 14 9 14
19 0 18 2 19 53 4 28 -8 116 -17 195 -20 78 -3 142 -9 142 -14 0 -7 -17 -15
-55 -26 -5 -1 -32 -9 -60 -17 l-50 -15 100 3 c76 3 113 9 153 26 28 12 52 26
52 31 0 4 10 11 23 15 26 8 87 71 87 90 0 16 37 37 50 29 22 -14 8 15 -17 35
-30 24 -51 24 -218 0 -147 -21 -202 -22 -208 -6 -5 11 2 17 21 21 71 15 101
29 111 52 19 41 13 53 -35 73 -51 22 -47 22 -88 10z"/>
<path d="M1349 1364 c-5 -15 -8 -29 -5 -31 6 -6 46 35 46 47 0 21 -31 9 -41
-16z"/>
</g>
</svg>
